<svg width="1282" height="1282" viewBox="0 0 1282 1282" fill="none" xmlns="http://www.w3.org/2000/svg">
<rect width="1282" height="1282" fill="#171717"/>
<path fill-rule="evenodd" clip-rule="evenodd" d="M1091 437C1091 425.954 1099.95 417 1111 417H1121C1132.05 417 1141 425.954 1141 437V622V632C1141 643.046 1149.95 652 1161 652H1171C1182.05 652 1191.35 661.297 1187.05 671.471C1185.83 674.362 1184.33 677.144 1182.57 679.779C1177.08 688.001 1169.27 694.41 1160.13 698.194C1153.91 700.772 1147.26 702.054 1140.59 701.998C1127.21 701.89 1115.09 696.531 1106.18 687.882C1106 687.708 1105.82 687.532 1105.65 687.356C1105.65 687.356 1105.65 687.355 1105.65 687.355C1105.54 687.249 1105.43 687.143 1105.33 687.036C1096.49 678.043 1091.04 665.724 1091 652.129C1091 652.081 1091 652.033 1091 651.984M1091 651.984V618.195C1084.11 666.701 1042.41 704 992 704C940.935 704 898.809 665.724 892.749 616.296C890.821 663.288 877.861 709.35 854.701 750.673C828.841 796.812 791.306 835.188 746.013 862.045C736.512 867.679 724.438 863.676 719.45 853.821L714.974 844.98C709.986 835.125 713.982 823.159 723.408 817.4C759.89 795.106 790.151 763.763 811.163 726.272C832.175 688.781 843.116 646.611 843.091 603.855C843.09 602.413 843.228 600.994 843.493 599.615C843.162 598.351 842.891 597.075 842.681 595.8C842.082 592.174 841.085 588.604 839.694 585.158C835.787 575.475 828.966 567.246 820.176 561.61C811.385 555.975 801.06 553.212 790.63 553.703C780.2 554.195 770.18 557.916 761.959 564.354C753.737 570.791 747.72 579.625 744.741 589.632C741.761 599.64 741.967 610.326 745.329 620.212C748.691 630.098 755.043 638.694 763.506 644.81C766.518 646.987 769.744 648.811 773.121 650.262C774.459 650.837 775.78 651.487 777.066 652.207C778.822 653.191 780.512 654.306 782.088 655.542C788.112 660.266 792.458 666.748 792.392 674.35L792.309 683.997C792.213 695.042 783.093 704.119 772.286 701.831C765.849 700.468 759.563 698.473 753.521 695.877C752.726 695.535 751.935 695.184 751.149 694.821C745.301 692.126 739.697 688.859 734.424 685.048C717.617 672.901 705.002 655.83 698.325 636.197C694.794 625.815 693.017 614.988 693 604.152C692.918 659.31 648.178 704 593 704C537.821 704 493.08 659.308 493 604.147C492.921 659.308 448.18 704 393.001 704C337.823 704 293.083 659.31 293.001 604.152C292.975 655.328 279.853 705.796 254.701 750.673C228.841 796.812 191.306 835.188 146.013 862.045C136.512 867.679 124.438 863.676 119.449 853.821L114.974 844.98C109.986 835.125 113.982 823.159 123.407 817.4C159.89 795.106 190.151 763.763 211.163 726.272C232.175 688.781 243.116 646.611 243.091 603.855C243.09 602.413 243.228 600.994 243.493 599.615C243.162 598.351 242.891 597.075 242.681 595.8C242.082 592.174 241.085 588.604 239.694 585.158C235.787 575.475 228.966 567.246 220.175 561.61C211.385 555.975 201.06 553.212 190.63 553.703C180.2 554.195 170.18 557.916 161.959 564.354C153.737 570.791 147.72 579.625 144.741 589.632C141.761 599.64 141.967 610.326 145.329 620.212C148.691 630.098 155.043 638.694 163.506 644.81C166.517 646.987 169.744 648.811 173.121 650.262C174.459 650.837 175.78 651.487 177.066 652.207C178.822 653.191 180.512 654.306 182.088 655.542C188.112 660.266 192.458 666.748 192.392 674.35L192.309 683.997C192.213 695.042 183.092 704.119 172.286 701.831C165.849 700.468 159.563 698.473 153.521 695.877C152.726 695.535 151.935 695.184 151.149 694.821C145.301 692.126 139.697 688.859 134.424 685.048C117.617 672.901 105.002 655.83 98.325 636.197C91.6482 616.564 91.2402 595.341 97.1574 575.466C103.075 555.591 115.024 538.047 131.352 525.263C147.68 512.479 167.579 505.087 188.293 504.111C209.007 503.135 229.513 508.622 246.97 519.814C264.428 531.006 277.975 547.349 285.735 566.579C288.169 572.613 289.996 578.836 291.209 585.161C291.372 586.011 291.524 586.863 291.665 587.716C292.197 590.937 292.57 594.181 292.784 597.435C292.897 598.218 292.96 599.019 292.972 599.835C292.99 601.174 293 602.512 293.001 603.849C293.082 548.69 337.822 504 393.001 504C448.18 504 492.921 548.692 493 603.853C493.08 548.692 537.821 504 593 504C648.178 504 692.918 548.69 693 603.849C693.015 594.293 694.398 584.733 697.158 575.466C703.075 555.591 715.024 538.047 731.352 525.263C747.68 512.479 767.579 505.087 788.293 504.111C809.007 503.135 829.513 508.622 846.97 519.814C864.428 531.006 877.975 547.349 885.735 566.579C888.169 572.613 889.996 578.836 891.21 585.161C891.373 586.011 891.525 586.863 891.665 587.716C892.008 589.794 892.285 591.882 892.496 593.976C897.525 543.454 940.155 504 992 504C1042.41 504 1084.11 541.299 1091 589.805V437M992 654C1019.61 654 1042 631.614 1042 604C1042 576.386 1019.61 554 992 554C964.386 554 942 576.386 942 604C942 631.614 964.386 654 992 654ZM393.001 654C420.615 654 443.001 631.614 443.001 604C443.001 576.386 420.615 554 393.001 554C365.386 554 343.001 576.386 343.001 604C343.001 631.614 365.386 654 393.001 654ZM643 604C643 631.614 620.615 654 593 654C565.386 654 543 631.614 543 604C543 576.386 565.386 554 593 554C620.615 554 643 576.386 643 604Z" fill="url(#paint0_linear_90_2)"/>
<defs>
<linearGradient id="paint0_linear_90_2" x1="640.563" y1="417" x2="640.563" y2="864.619" gradientUnits="userSpaceOnUse">
<stop stop-color="#00BBF0"/>
<stop offset="0.774" stop-color="#BC2EFF"/>
</linearGradient>
</defs>
</svg>
