<svg width="393" height="852" viewBox="0 0 393 852" fill="none" xmlns="http://www.w3.org/2000/svg">
<rect width="393" height="852" fill="#FF7F6D"/>
<path d="M82.8421 513V479.4H90.1381L100.842 500.712L111.402 479.4H118.698V513H112.554V489.816L103.194 508.2H98.3461L88.9861 489.816V513H82.8421ZM132.001 513.576C129.025 513.576 126.721 512.648 125.089 510.792C123.489 508.936 122.689 506.216 122.689 502.632V489.192H128.785V502.056C128.785 504.104 129.201 505.672 130.033 506.76C130.865 507.848 132.177 508.392 133.969 508.392C135.665 508.392 137.057 507.784 138.145 506.568C139.265 505.352 139.825 503.656 139.825 501.48V489.192H145.969V513H140.545L140.065 508.968C139.329 510.376 138.257 511.496 136.849 512.328C135.473 513.16 133.857 513.576 132.001 513.576ZM160.116 513.576C158.004 513.576 156.148 513.24 154.548 512.568C152.948 511.864 151.668 510.904 150.708 509.688C149.748 508.472 149.172 507.064 148.98 505.464H155.172C155.364 506.392 155.876 507.192 156.708 507.864C157.572 508.504 158.676 508.824 160.02 508.824C161.364 508.824 162.34 508.552 162.948 508.008C163.588 507.464 163.908 506.84 163.908 506.136C163.908 505.112 163.46 504.424 162.564 504.072C161.668 503.688 160.42 503.32 158.82 502.968C157.796 502.744 156.756 502.472 155.7 502.152C154.644 501.832 153.668 501.432 152.772 500.952C151.908 500.44 151.204 499.8 150.66 499.032C150.116 498.232 149.844 497.256 149.844 496.104C149.844 493.992 150.676 492.216 152.34 490.776C154.036 489.336 156.404 488.616 159.444 488.616C162.26 488.616 164.5 489.272 166.164 490.584C167.86 491.896 168.868 493.704 169.188 496.008H163.38C163.028 494.248 161.7 493.368 159.396 493.368C158.244 493.368 157.348 493.592 156.708 494.04C156.1 494.488 155.796 495.048 155.796 495.72C155.796 496.424 156.26 496.984 157.188 497.4C158.116 497.816 159.348 498.2 160.884 498.552C162.548 498.936 164.068 499.368 165.444 499.848C166.852 500.296 167.972 500.984 168.804 501.912C169.636 502.808 170.052 504.104 170.052 505.8C170.084 507.272 169.7 508.6 168.9 509.784C168.1 510.968 166.948 511.896 165.444 512.568C163.94 513.24 162.164 513.576 160.116 513.576ZM185.159 513.576C182.727 513.576 180.583 513.048 178.727 511.992C176.871 510.936 175.399 509.464 174.311 507.576C173.255 505.688 172.727 503.528 172.727 501.096C172.727 498.664 173.255 496.504 174.311 494.616C175.399 492.728 176.871 491.256 178.727 490.2C180.583 489.144 182.727 488.616 185.159 488.616C188.199 488.616 190.759 489.416 192.839 491.016C194.919 492.584 196.247 494.76 196.823 497.544H190.343C190.023 496.392 189.383 495.496 188.423 494.856C187.495 494.184 186.391 493.848 185.111 493.848C183.415 493.848 181.975 494.488 180.791 495.768C179.607 497.048 179.015 498.824 179.015 501.096C179.015 503.368 179.607 505.144 180.791 506.424C181.975 507.704 183.415 508.344 185.111 508.344C186.391 508.344 187.495 508.024 188.423 507.384C189.383 506.744 190.023 505.832 190.343 504.648H196.823C196.247 507.336 194.919 509.496 192.839 511.128C190.759 512.76 188.199 513.576 185.159 513.576ZM200.276 513V478.44H206.42V513H200.276ZM222.266 513.576C219.866 513.576 217.738 513.064 215.882 512.04C214.026 511.016 212.57 509.576 211.514 507.72C210.458 505.864 209.93 503.72 209.93 501.288C209.93 498.824 210.442 496.632 211.466 494.712C212.522 492.792 213.962 491.304 215.786 490.248C217.642 489.16 219.818 488.616 222.314 488.616C224.65 488.616 226.714 489.128 228.506 490.152C230.298 491.176 231.69 492.584 232.682 494.376C233.706 496.136 234.218 498.104 234.218 500.28C234.218 500.632 234.202 501 234.17 501.384C234.17 501.768 234.154 502.168 234.122 502.584H216.026C216.154 504.44 216.794 505.896 217.946 506.952C219.13 508.008 220.554 508.536 222.218 508.536C223.466 508.536 224.506 508.264 225.338 507.72C226.202 507.144 226.842 506.408 227.258 505.512H233.498C233.05 507.016 232.298 508.392 231.242 509.64C230.218 510.856 228.938 511.816 227.402 512.52C225.898 513.224 224.186 513.576 222.266 513.576ZM222.314 493.608C220.81 493.608 219.482 494.04 218.33 494.904C217.178 495.736 216.442 497.016 216.122 498.744H227.978C227.882 497.176 227.306 495.928 226.25 495C225.194 494.072 223.882 493.608 222.314 493.608ZM255.751 513.576C252.775 513.576 250.471 512.648 248.839 510.792C247.239 508.936 246.439 506.216 246.439 502.632V489.192H252.535V502.056C252.535 504.104 252.951 505.672 253.783 506.76C254.615 507.848 255.927 508.392 257.719 508.392C259.415 508.392 260.807 507.784 261.895 506.568C263.015 505.352 263.575 503.656 263.575 501.48V489.192H269.719V513H264.295L263.815 508.968C263.079 510.376 262.007 511.496 260.599 512.328C259.223 513.16 257.607 513.576 255.751 513.576ZM274.026 523.56V489.192H279.498L280.17 492.6C280.938 491.544 281.946 490.616 283.194 489.816C284.474 489.016 286.122 488.616 288.138 488.616C290.378 488.616 292.378 489.16 294.138 490.248C295.898 491.336 297.29 492.824 298.314 494.712C299.338 496.6 299.85 498.744 299.85 501.144C299.85 503.544 299.338 505.688 298.314 507.576C297.29 509.432 295.898 510.904 294.138 511.992C292.378 513.048 290.378 513.576 288.138 513.576C286.346 513.576 284.778 513.24 283.434 512.568C282.09 511.896 281.002 510.952 280.17 509.736V523.56H274.026ZM286.842 508.2C288.794 508.2 290.41 507.544 291.69 506.232C292.97 504.92 293.61 503.224 293.61 501.144C293.61 499.064 292.97 497.352 291.69 496.008C290.41 494.664 288.794 493.992 286.842 493.992C284.858 493.992 283.226 494.664 281.946 496.008C280.698 497.32 280.074 499.016 280.074 501.096C280.074 503.176 280.698 504.888 281.946 506.232C283.226 507.544 284.858 508.2 286.842 508.2ZM304.635 502.392L303.963 479.4H310.539L309.819 502.392H304.635ZM307.371 513.336C306.219 513.336 305.275 512.984 304.539 512.28C303.835 511.576 303.483 510.728 303.483 509.736C303.483 508.712 303.835 507.848 304.539 507.144C305.275 506.44 306.219 506.088 307.371 506.088C308.459 506.088 309.355 506.44 310.059 507.144C310.795 507.848 311.163 508.712 311.163 509.736C311.163 510.728 310.795 511.576 310.059 512.28C309.355 512.984 308.459 513.336 307.371 513.336Z" fill="white"/>
<path d="M82.6901 549H77.4941V540.492H78.6701V547.896H82.6901V549ZM89.2403 549H84.0683V540.492H89.2403V541.584H85.2443V544.2H88.8683V545.304H85.2443V547.908H89.2403V549ZM96.9449 541.584H94.1009V549H92.9249V541.584H90.0809V540.492H96.9449V541.584ZM107.035 549L106.111 546.624H102.343L101.443 549H100.183L103.567 540.492H104.923L108.307 549H107.035ZM104.215 541.716L102.763 545.532H105.691L104.215 541.716ZM110.71 549H109.51V540.492H110.71V549ZM122.569 549H121.393V545.22H117.049V549H115.873V540.492H117.049V544.128H121.393V540.492H122.569V549ZM129.904 549H124.732V540.492H129.904V541.584H125.908V544.2H129.532V545.304H125.908V547.908H129.904V549ZM136.901 549H131.705V540.492H132.881V547.896H136.901V549ZM139.455 544.464H141.159C142.179 544.464 142.803 543.9 142.803 543.024C142.803 542.124 142.179 541.548 141.159 541.548H139.455V544.464ZM141.375 545.52H139.455V549H138.279V540.492H141.375C142.947 540.492 144.003 541.584 144.003 543.012C144.003 544.452 142.947 545.52 141.375 545.52ZM150.479 545.364L147.479 540.492H148.895L151.103 544.284L153.311 540.492H154.655L151.655 545.364V549H150.479V545.364ZM155.978 544.74C155.978 546.96 157.466 548.1 159.05 548.1C160.634 548.1 162.122 546.96 162.122 544.74C162.122 542.52 160.634 541.392 159.05 541.392C157.466 541.392 155.978 542.52 155.978 544.74ZM154.778 544.74C154.778 541.896 156.914 540.312 159.05 540.312C161.186 540.312 163.322 541.896 163.322 544.74C163.322 547.584 161.186 549.18 159.05 549.18C156.914 549.18 154.778 547.584 154.778 544.74ZM167.879 549.18C166.151 549.18 164.819 548.1 164.819 546.096V540.492H165.983V546.06C165.983 547.356 166.691 548.088 167.879 548.088C169.079 548.088 169.763 547.356 169.763 546.06V540.492H170.939V546.096C170.939 548.1 169.607 549.18 167.879 549.18ZM183.346 549H182.398L182.29 547.8C181.918 548.472 180.994 549.18 179.566 549.18C177.43 549.18 175.438 547.62 175.438 544.74C175.438 541.86 177.55 540.312 179.65 540.312C181.498 540.312 182.926 541.344 183.418 542.88L182.35 543.336C181.966 542.112 180.97 541.392 179.65 541.392C178.126 541.392 176.638 542.484 176.638 544.74C176.638 546.996 178.078 548.112 179.602 548.112C181.498 548.112 182.182 546.768 182.23 545.892H179.278V544.836H183.346V549ZM190.326 549H185.154V540.492H190.326V541.584H186.33V544.2H189.954V545.304H186.33V547.908H190.326V549ZM198.031 541.584H195.187V549H194.011V541.584H191.167V540.492H198.031V541.584ZM203.428 549H202.228V540.492H203.428V549ZM212.588 549H211.364L206.768 542.064V549H205.592V540.492H207.164L211.412 547.02V540.492H212.588V549ZM220.648 541.584H217.804V549H216.628V541.584H213.784V540.492H220.648V541.584ZM222.201 544.74C222.201 546.96 223.689 548.1 225.273 548.1C226.857 548.1 228.345 546.96 228.345 544.74C228.345 542.52 226.857 541.392 225.273 541.392C223.689 541.392 222.201 542.52 222.201 544.74ZM221.001 544.74C221.001 541.896 223.137 540.312 225.273 540.312C227.409 540.312 229.545 541.896 229.545 544.74C229.545 547.584 227.409 549.18 225.273 549.18C223.137 549.18 221.001 547.584 221.001 544.74ZM234.162 540.492H236.934C238.554 540.492 239.502 541.452 239.502 542.796C239.502 543.708 238.974 544.356 238.23 544.632C239.202 544.872 239.766 545.736 239.766 546.684C239.766 548.028 238.698 549 237.138 549H234.162V540.492ZM235.338 544.212H236.802C237.75 544.212 238.314 543.648 238.314 542.856C238.314 542.052 237.726 541.524 236.754 541.524H235.338V544.212ZM235.338 547.968H236.97C237.918 547.968 238.566 547.44 238.566 546.612C238.566 545.796 238.05 545.22 237.018 545.22H235.338V547.968ZM246.553 549H241.381V540.492H246.553V541.584H242.557V544.2H246.181V545.304H242.557V547.908H246.553V549ZM254.257 541.584H251.413V549H250.237V541.584H247.393V540.492H254.257V541.584ZM261.593 541.584H258.749V549H257.573V541.584H254.729V540.492H261.593V541.584ZM267.963 549H262.791V540.492H267.963V541.584H263.967V544.2H267.591V545.304H263.967V547.908H267.963V549ZM274.168 549L272.224 545.52H270.952V549H269.764V540.492H272.968C274.576 540.492 275.572 541.62 275.572 543.024C275.572 544.248 274.792 545.196 273.508 545.436L275.536 549H274.168ZM270.952 544.464H272.752C273.712 544.464 274.36 543.9 274.36 543.024C274.36 542.124 273.712 541.548 272.752 541.548H270.952V544.464ZM285.617 542.424L284.561 542.796C284.465 542.184 283.949 541.344 282.761 541.344C281.801 541.344 281.117 541.968 281.117 542.76C281.117 543.372 281.489 543.84 282.209 543.996L283.481 544.272C284.897 544.584 285.689 545.472 285.689 546.66C285.689 547.98 284.561 549.18 282.749 549.18C280.697 549.18 279.725 547.86 279.569 546.648L280.697 546.288C280.781 547.236 281.453 548.112 282.737 548.112C283.913 548.112 284.489 547.5 284.489 546.756C284.489 546.144 284.069 545.616 283.217 545.436L282.005 545.172C280.793 544.908 279.929 544.116 279.929 542.844C279.929 541.512 281.165 540.312 282.737 540.312C284.657 540.312 285.425 541.5 285.617 542.424ZM294.003 549H292.827V545.22H288.483V549H287.307V540.492H288.483V544.128H292.827V540.492H294.003V549ZM302.058 549L301.134 546.624H297.366L296.466 549H295.206L298.59 540.492H299.946L303.33 549H302.058ZM299.238 541.716L297.786 545.532H300.714L299.238 541.716ZM305.709 544.464H307.413C308.433 544.464 309.057 543.9 309.057 543.024C309.057 542.124 308.433 541.548 307.413 541.548H305.709V544.464ZM307.629 545.52H305.709V549H304.533V540.492H307.629C309.201 540.492 310.257 541.584 310.257 543.012C310.257 544.452 309.201 545.52 307.629 545.52ZM316.865 549H311.693V540.492H316.865V541.584H312.869V544.2H316.493V545.304H312.869V547.908H316.865V549Z" fill="white"/>
<path d="M140.188 344.541L137.075 395.816L127.113 390.064L124 335.194L140.188 344.541ZM124.356 404.383C124.356 399.152 127.736 396.854 132.005 399.319C136.275 401.784 139.744 408.037 139.744 413.267C139.744 418.39 136.275 420.637 132.005 418.172C127.736 415.707 124.356 409.505 124.356 404.383Z" fill="white"/>
<path d="M225.193 402.706L236.892 395.952C244.522 391.547 249.735 384.723 249.735 378.729C249.735 372.517 244.522 371.822 236.892 376.227L225.193 382.981L225.193 402.706ZM238.927 409.598L225.066 417.601L225.066 435.76L204.975 447.36L204.975 379.724L238.927 360.122C257.238 349.55 269.827 352.635 269.827 367.02C269.827 381.623 257.238 399.026 238.927 409.598Z" fill="white"/>
<path d="M178.514 445.744C166.585 438.857 157.026 423.095 157.026 403.696L157.026 354.329L169.108 361.304L169.108 409.255C169.108 418.627 172.779 425.432 178.514 428.744C184.249 432.055 187.919 429.488 187.919 420.116L187.919 372.165L200.001 379.14L200.001 428.508C200.001 447.906 190.443 452.632 178.514 445.744Z" fill="white"/>
<path d="M202.536 376.388L187.907 367.942L232.265 342.332L170.447 357.862L158.366 350.887L184.698 315.523L140.906 340.807L126.75 332.633L193.664 294L213.106 305.225L186.303 341.951L248.97 325.931L269.45 337.755L202.536 376.388Z" fill="white"/>
</svg>
